<?xml version="1.0" standalone="no"?>
<!DOCTYPE svg PUBLIC "-//W3C//DTD SVG 20010904//EN"
 "http://www.w3.org/TR/2001/REC-SVG-20010904/DTD/svg10.dtd">
<svg version="1.0" xmlns="http://www.w3.org/2000/svg"
 width="64px" height="64px" viewBox="0 0 700.000000 700.000000"
 preserveAspectRatio="xMidYMid meet">

<g transform="translate(0.000000,700.000000) scale(0.100000,-0.100000)"
fill="#F5F7F7" stroke="none">
<path d="M3005 6490 c-849 -62 -1629 -477 -2147 -1142 -124 -159 -140 -182
-217 -312 -88 -149 -170 -315 -227 -463 -165 -427 -234 -914 -189 -1343 43
-415 129 -717 300 -1065 245 -495 580 -875 1045 -1186 262 -174 639 -340 933
-408 26 -6 66 -15 90 -21 141 -33 473 -70 627 -70 93 0 313 19 458 40 291 41
604 140 872 274 163 82 182 93 330 191 155 102 268 192 388 309 82 80 92 94
92 125 0 34 -49 84 -982 1018 l-983 983 1391 0 c1356 0 1392 0 1415 19 23 19
24 24 21 143 -24 1106 -685 2126 -1692 2615 -299 145 -605 234 -945 277 -154
20 -427 27 -580 16z m145 -304 l0 -163 -37 -7 c-21 -3 -59 -6 -86 -6 -87 0
-335 -42 -472 -81 -125 -35 -149 -43 -255 -85 -275 -109 -501 -245 -731 -441
l-85 -72 -117 116 -117 117 32 34 c82 85 294 244 473 353 381 233 906 392
1308 398 l87 1 0 -164z m407 149 c388 -48 733 -160 1068 -348 156 -88 380
-249 498 -359 l68 -63 -118 -118 -119 -118 -52 47 c-125 113 -303 240 -452
323 -50 27 -219 111 -224 111 -4 0 -25 9 -49 20 -55 25 -265 94 -347 114 -163
38 -204 45 -487 72 l-53 5 0 165 0 164 73 0 c40 0 127 -7 194 -15z m-423 -461
c14 -6 16 -112 16 -1107 l0 -1102 -778 775 c-428 426 -779 780 -780 785 -3 18
234 211 333 272 144 89 388 213 418 213 7 0 17 3 20 7 8 7 96 40 142 53 234
65 346 86 597 108 9 1 23 -1 32 -4z m391 -15 c169 -22 435 -89 550 -139 11 -5
40 -17 65 -26 97 -39 294 -145 397 -214 118 -79 298 -223 306 -244 5 -12
-1529 -1556 -1546 -1556 -9 0 -9 2184 0 2194 8 7 100 1 228 -15z m-2256 -514
l114 -114 -37 -43 c-246 -286 -403 -551 -511 -859 -74 -212 -119 -427 -131
-627 -4 -59 -11 -115 -16 -124 -8 -16 -26 -18 -167 -18 -118 0 -160 3 -163 13
-2 6 2 80 9 162 52 609 294 1176 703 1649 36 41 69 75 75 75 5 1 61 -51 124
-114z m4086 53 c313 -344 572 -852 666 -1307 33 -163 59 -363 59 -463 l0 -68
-164 0 c-186 0 -176 -5 -176 89 0 50 -22 239 -34 296 -2 11 -10 47 -16 80 -66
327 -232 691 -441 970 -72 96 -166 208 -180 213 -5 2 -9 9 -9 15 0 12 220 237
231 237 4 0 33 -28 64 -62z m-3088 -1050 c424 -424 770 -775 767 -780 -7 -10
-2191 -11 -2198 0 -6 10 10 207 24 292 30 179 81 362 149 532 61 154 164 340
269 487 67 95 192 241 205 241 6 0 359 -347 784 -772z m2725 740 c117 -125
259 -330 346 -500 145 -280 229 -565 258 -868 11 -118 11 -135 7 -147 -4 -10
-234 -13 -1104 -13 -604 0 -1099 3 -1099 7 0 11 1543 1553 1553 1553 5 0 23
-15 39 -32z m-4298 -1690 c3 -13 7 -68 11 -123 30 -504 269 -1064 619 -1454
l58 -64 -113 -113 c-63 -63 -119 -114 -125 -114 -23 0 -224 246 -316 385 -272
414 -439 914 -465 1392 l-6 113 166 0 c165 0 167 0 171 -22z m2336 14 c0 -4
-349 -356 -775 -782 l-775 -775 -26 30 c-194 230 -289 372 -391 585 -27 58
-55 121 -62 140 -7 19 -17 44 -22 55 -12 30 -39 114 -54 170 -39 145 -46 178
-60 265 -20 130 -36 300 -29 311 6 11 2194 12 2194 1z m120 -1201 c0 -605 -3
-1102 -7 -1104 -5 -2 -69 2 -143 9 -323 31 -555 97 -840 239 -81 40 -101 51
-195 106 -111 64 -375 273 -375 297 0 9 1543 1552 1552 1552 5 0 8 -495 8
-1099z m1692 -445 c8 -16 3 -25 -33 -57 -84 -74 -268 -210 -351 -260 -120 -72
-363 -189 -391 -189 -7 0 -17 -4 -22 -8 -18 -15 -223 -75 -330 -97 -157 -31
-397 -59 -417 -48 -10 5 -10 2187 -1 2197 7 7 1526 -1505 1545 -1538z m-3326
-142 c323 -286 668 -473 1069 -578 125 -33 320 -65 450 -74 l110 -7 3 -167 2
-168 -52 0 c-201 1 -510 57 -759 136 -364 116 -757 343 -1029 593 l-65 60 115
115 c63 64 117 116 121 116 3 0 19 -12 35 -26z m3573 -98 l104 -106 -24 -26
c-72 -77 -325 -270 -464 -353 -398 -240 -846 -380 -1298 -407 l-117 -7 2 169
3 169 105 7 c256 16 539 82 775 178 44 18 293 141 334 165 122 72 279 188 389
288 41 37 56 45 70 38 9 -5 64 -57 121 -115z"/>
<path d="M2353 5286 c-37 -26 -62 -56 -89 -106 -14 -27 -19 -57 -19 -130 0
-87 3 -100 30 -148 42 -77 101 -115 176 -115 70 1 111 22 156 81 39 52 53 98
53 179 0 108 -40 194 -111 239 -53 33 -149 34 -196 0z m143 -141 c41 -63 33
-170 -17 -208 -34 -24 -59 -12 -84 39 -21 45 -17 127 9 167 24 36 69 37 92 2z"/>
<path d="M3005 4604 c-5 -1 -104 -8 -220 -14 -245 -13 -258 -17 -253 -83 5
-65 15 -68 268 -55 118 6 225 15 238 19 28 11 46 50 38 83 -6 25 -51 56 -71
50z"/>
<path d="M3807 5512 c-22 -25 -21 -74 1 -103 11 -13 54 -76 97 -139 42 -63 88
-125 102 -137 30 -28 63 -29 91 -3 40 37 29 67 -74 216 -52 77 -105 149 -116
162 -26 27 -78 29 -101 4z"/>
<path d="M3688 4956 c-42 -18 -89 -67 -110 -114 -20 -44 -26 -122 -13 -163 15
-47 59 -101 104 -127 38 -22 58 -27 116 -27 76 1 114 15 161 62 77 77 85 228
16 307 -9 10 -37 32 -61 48 -39 24 -54 28 -115 27 -39 0 -83 -6 -98 -13z m160
-152 c33 -38 30 -86 -10 -119 -26 -22 -39 -26 -67 -21 -44 7 -71 38 -71 80 0
85 92 122 148 60z"/>
<path d="M1321 4416 c-46 -17 -105 -68 -125 -109 -17 -36 -21 -101 -9 -157 4
-20 25 -52 52 -81 38 -39 55 -49 101 -58 94 -18 178 16 228 93 22 34 27 52 27
111 0 59 -5 77 -27 111 -57 88 -155 124 -247 90z m114 -151 c14 -13 25 -35 25
-47 0 -56 -61 -93 -106 -63 -49 32 -53 76 -11 115 28 27 63 25 92 -5z"/>
<path d="M1945 4195 c-31 -30 -31 -41 0 -117 14 -34 25 -65 25 -70 0 -4 8 -27
19 -51 10 -23 38 -90 61 -149 23 -59 48 -113 56 -119 46 -38 121 7 110 66 -6
29 -89 247 -127 332 -10 24 -19 47 -19 52 0 24 -24 60 -47 70 -36 16 -51 14
-78 -14z"/>
<path d="M4855 4418 c-100 -36 -155 -113 -155 -218 0 -144 138 -248 279 -210
51 13 126 79 147 128 18 44 18 130 0 174 -18 42 -82 102 -132 123 -42 17 -95
18 -139 3z m117 -155 c34 -32 37 -79 9 -114 -27 -34 -95 -33 -122 1 -27 36
-24 82 7 114 34 33 70 33 106 -1z"/>
<path d="M4237 4031 c-179 -119 -195 -137 -166 -190 11 -19 24 -27 51 -29 32
-3 56 10 196 104 180 119 201 144 165 192 -39 52 -63 44 -246 -77z"/>
<path d="M2055 3267 c-38 -18 -90 -69 -112 -111 -25 -47 -23 -151 4 -202 70
-132 238 -165 352 -69 52 44 75 95 75 170 1 59 -3 77 -27 118 -43 73 -94 101
-186 105 -48 1 -87 -3 -106 -11z m130 -132 c61 -25 70 -104 18 -145 -52 -41
-126 -10 -139 57 -6 28 -1 38 29 68 40 40 44 41 92 20z"/>
<path d="M1197 3222 c-15 -16 -17 -51 -17 -280 0 -256 0 -262 22 -282 26 -24
56 -26 86 -4 22 15 22 18 22 283 0 247 -1 269 -18 284 -25 22 -75 21 -95 -1z"/>
<path d="M2784 2500 c-51 -22 -112 -92 -120 -138 -28 -148 61 -261 207 -262
55 0 72 4 113 30 53 34 96 109 96 170 0 157 -156 263 -296 200z m131 -145 c46
-45 19 -118 -43 -118 -43 0 -72 28 -72 69 0 66 69 96 115 49z"/>
<path d="M2340 2280 c-23 -23 -26 -64 -7 -100 7 -14 46 -88 87 -165 106 -203
115 -218 143 -239 42 -31 97 0 97 55 0 18 -24 76 -56 137 -31 59 -79 150 -107
202 -27 52 -58 103 -69 113 -27 23 -63 22 -88 -3z"/>
<path d="M3742 2284 c-16 -11 -22 -25 -22 -53 0 -44 10 -55 95 -101 33 -17 65
-35 70 -40 6 -4 37 -22 70 -40 33 -18 83 -46 110 -61 62 -35 79 -36 110 -4 33
32 32 67 -3 97 -43 36 -367 218 -389 218 -10 0 -29 -7 -41 -16z"/>
<path d="M3624 1841 c-69 -18 -139 -80 -165 -148 -5 -15 -10 -49 -11 -75 0
-94 42 -169 121 -216 37 -22 58 -26 116 -27 62 0 78 4 121 30 121 75 156 221
80 333 -56 83 -168 127 -262 103z m135 -165 c66 -66 -2 -179 -96 -161 -86 16
-100 151 -19 186 33 14 88 2 115 -25z"/>
<path d="M3755 3328 c-28 -16 -35 -28 -35 -63 0 -27 121 -151 1058 -1088 895
-895 1061 -1057 1085 -1057 30 0 65 32 194 179 320 366 545 809 657 1292 43
187 63 344 72 550 l7 155 -28 22 -28 22 -1481 0 c-1085 -1 -1486 -4 -1501 -12z
m2411 -230 c-20 -301 -100 -596 -236 -874 -71 -145 -211 -366 -295 -464 -26
-30 -60 -70 -75 -87 -15 -18 -31 -33 -36 -33 -5 0 -360 351 -789 780 l-780
780 1109 0 1109 0 -7 -102z m476 7 c-21 -610 -301 -1285 -726 -1750 l-54 -60
-116 115 c-64 63 -116 118 -116 122 0 3 6 13 13 20 6 7 44 51 83 98 341 411
531 876 575 1411 l12 139 166 -2 166 -3 -3 -90z"/>
<path d="M4598 3040 c-85 -45 -130 -141 -109 -234 41 -185 285 -226 387 -65
20 32 26 55 26 104 2 93 -27 143 -112 194 -46 28 -140 28 -192 1z m152 -147
c37 -47 4 -113 -56 -113 -35 0 -74 37 -74 70 0 10 9 29 21 44 29 36 80 36 109
-1z"/>
<path d="M5339 2467 c-124 -51 -233 -98 -243 -106 -16 -14 -22 -67 -8 -87 23
-35 61 -36 142 -2 14 6 34 14 45 18 11 5 41 17 67 29 26 12 52 21 58 21 6 0
18 4 28 9 18 9 63 28 97 41 105 40 125 57 125 102 0 32 -35 68 -64 67 -12 0
-123 -42 -247 -92z"/>
</g>
</svg>
